<?xml version="1.0" encoding="utf-8"?>
<!-- Generator: Adobe Illustrator 16.0.4, SVG Export Plug-In . SVG Version: 6.00 Build 0)  -->
<!DOCTYPE svg PUBLIC "-//W3C//DTD SVG 1.1//EN" "http://www.w3.org/Graphics/SVG/1.1/DTD/svg11.dtd">
<svg version="1.1" id="Layer_1" xmlns="http://www.w3.org/2000/svg" xmlns:xlink="http://www.w3.org/1999/xlink" x="0px" y="0px"
	 width="408px" height="169.333px" viewBox="0 0 408 169.333" enable-background="new 0 0 408 169.333" xml:space="preserve">
<g>
	<path fill="#FFD317" d="M156.941,108.981l-31.426-22.063l29.142-22.238l-36.64,1.191l10.401-36.962L100.561,52.9L88.25,15.334
		l-8.436,37.625l-30.321-23.82l14.208,36.89l-36.75-0.98l31.426,22.064l-29.142,22.241l36.64-1.191l-10.402,36.961l27.858-23.991
		l12.312,37.563l8.434-37.622l30.322,23.819l-14.209-36.889L156.941,108.981z M91.934,118.86c-17.787,0-32.209-14.422-32.209-32.21
		c0-17.787,14.422-32.206,32.209-32.206c17.788,0,32.207,14.418,32.207,32.206C124.141,104.438,109.722,118.86,91.934,118.86z"/>
</g>
<circle fill="#F36C31" cx="91.686" cy="86.576" r="33.031"/>
<polygon fill="#FFFFFF" points="113.969,81.766 92.042,59.678 85.567,66.133 85.567,61.99 79.554,61.99 79.554,72.127 
	69.885,81.766 73.389,81.766 73.389,108.754 110.543,108.567 110.466,81.766 "/>
<g>
	<path d="M92.331,104.907c-0.814,0-1.527-0.096-2.139-0.286c-0.611-0.191-1.131-0.455-1.561-0.793
		c-0.43-0.337-0.771-0.738-1.021-1.203c-0.252-0.464-0.426-0.974-0.521-1.527h2.311c0.084,0.337,0.201,0.654,0.354,0.95
		c0.153,0.296,0.348,0.552,0.583,0.769c0.235,0.216,0.516,0.387,0.841,0.511c0.324,0.124,0.699,0.187,1.126,0.187
		c0.286,0,0.568-0.03,0.845-0.091c0.277-0.061,0.525-0.158,0.745-0.292c0.22-0.133,0.396-0.31,0.53-0.529
		c0.133-0.22,0.2-0.488,0.2-0.807c0-0.407-0.104-0.768-0.311-1.079c-0.206-0.312-0.48-0.597-0.821-0.854
		c-0.34-0.258-0.729-0.498-1.164-0.722c-0.437-0.223-0.881-0.446-1.332-0.673c-0.453-0.226-0.896-0.461-1.332-0.706
		c-0.437-0.245-0.824-0.521-1.166-0.826c-0.34-0.306-0.613-0.649-0.82-1.031s-0.311-0.821-0.311-1.318
		c0-0.54,0.117-1.042,0.354-1.504c0.235-0.461,0.578-0.86,1.026-1.198c0.448-0.337,0.997-0.602,1.647-0.792
		c0.648-0.191,1.387-0.286,2.215-0.286c0.688,0,1.309,0.095,1.861,0.286c0.555,0.19,1.043,0.45,1.467,0.778
		c0.423,0.328,0.779,0.715,1.068,1.16c0.29,0.445,0.512,0.926,0.664,1.441h-2.101c-0.121-0.324-0.261-0.633-0.42-0.926
		s-0.356-0.551-0.593-0.773c-0.234-0.223-0.519-0.399-0.85-0.53c-0.33-0.13-0.729-0.195-1.193-0.195
		c-0.433,0-0.799,0.057-1.098,0.172c-0.3,0.114-0.541,0.259-0.727,0.435c-0.184,0.175-0.316,0.37-0.396,0.587
		c-0.08,0.217-0.12,0.43-0.12,0.64c0,0.362,0.107,0.692,0.32,0.988s0.496,0.569,0.85,0.821c0.354,0.251,0.753,0.493,1.199,0.726
		c0.445,0.232,0.902,0.466,1.369,0.702c0.469,0.235,0.927,0.48,1.375,0.734c0.449,0.255,0.85,0.537,1.203,0.846
		s0.637,0.65,0.85,1.026c0.214,0.376,0.32,0.799,0.32,1.27c0,0.554-0.114,1.068-0.344,1.542c-0.229,0.475-0.568,0.889-1.017,1.241
		c-0.448,0.354-1.006,0.631-1.671,0.831C93.961,104.806,93.197,104.907,92.331,104.907z"/>
	<path d="M100.438,91.1h3.342v8.736c0,0.528,0.081,1.023,0.243,1.485c0.163,0.461,0.395,0.863,0.697,1.207
		c0.302,0.344,0.67,0.616,1.103,0.816c0.434,0.201,0.917,0.301,1.451,0.301c0.535,0,1.018-0.1,1.447-0.301
		c0.43-0.2,0.795-0.473,1.098-0.816s0.535-0.746,0.697-1.207c0.162-0.462,0.243-0.957,0.243-1.485V91.1h2.101v8.736
		c0,0.7-0.119,1.364-0.357,1.991c-0.239,0.627-0.611,1.176-1.117,1.646c-0.506,0.472-1.159,0.844-1.958,1.117
		c-0.799,0.274-1.755,0.411-2.869,0.411c-0.999,0-1.88-0.137-2.64-0.411c-0.762-0.273-1.399-0.647-1.915-1.121
		c-0.516-0.475-0.905-1.027-1.169-1.657c-0.265-0.63-0.396-1.299-0.396-2.005V91.1z"/>
	<path d="M116.202,91.1h2.13l7.753,8.65V91.1h2.092v13.807h-1.441l-8.422-9.549v9.339h-2.111V91.1z"/>
	<path d="M131.518,91.1h2.129l7.754,8.65V91.1h2.092v13.807h-1.442l-8.422-9.549v9.339h-2.11V91.1z"/>
	<path d="M148.658,91.1l4.479,6.12l4.191-6.12h2.253l-5.299,7.715v5.882h-3.342v-5.682l-5.777-7.915H148.658z"/>
	<path d="M170.075,98.223v6.474h-3.332V91.1h3.332v5.958h5.472V91.1h3.304v13.597h-3.304v-6.474H170.075z"/>
	<path d="M189.249,105.002c-0.732,0-1.433-0.081-2.101-0.243c-0.669-0.163-1.289-0.394-1.862-0.692
		c-0.573-0.3-1.095-0.662-1.565-1.089c-0.472-0.427-0.873-0.907-1.203-1.441c-0.331-0.535-0.588-1.116-0.77-1.743
		c-0.181-0.627-0.271-1.29-0.271-1.99c0-0.688,0.091-1.339,0.271-1.953c0.182-0.614,0.438-1.18,0.77-1.695
		c0.33-0.516,0.731-0.981,1.203-1.398c0.471-0.417,0.992-0.769,1.565-1.055c0.573-0.287,1.193-0.508,1.862-0.664
		c0.668-0.156,1.368-0.233,2.101-0.233c0.731,0,1.432,0.077,2.101,0.233c0.668,0.156,1.289,0.379,1.861,0.669
		c0.573,0.289,1.096,0.641,1.566,1.055s0.872,0.878,1.203,1.394s0.587,1.079,0.769,1.69s0.272,1.258,0.272,1.938
		c0,0.72-0.091,1.397-0.272,2.034s-0.438,1.222-0.769,1.757c-0.331,0.534-0.732,1.014-1.203,1.437
		c-0.471,0.424-0.993,0.783-1.566,1.079c-0.572,0.296-1.193,0.522-1.861,0.678C190.68,104.924,189.98,105.002,189.249,105.002z
		 M189.249,103.847c0.662,0,1.246-0.151,1.752-0.454c0.506-0.302,0.931-0.722,1.274-1.26s0.604-1.176,0.778-1.915
		c0.175-0.738,0.263-1.543,0.263-2.415c0-0.859-0.088-1.647-0.263-2.363c-0.175-0.717-0.435-1.332-0.778-1.848
		s-0.769-0.917-1.274-1.203c-0.506-0.287-1.09-0.43-1.752-0.43c-0.669,0-1.258,0.143-1.767,0.43
		c-0.51,0.286-0.935,0.688-1.274,1.203c-0.341,0.516-0.599,1.131-0.773,1.848c-0.176,0.716-0.263,1.504-0.263,2.363
		c0,0.872,0.087,1.677,0.263,2.415c0.175,0.739,0.433,1.377,0.773,1.915c0.34,0.538,0.765,0.958,1.274,1.26
		C187.991,103.696,188.58,103.847,189.249,103.847z"/>
	<path d="M199.647,91.1h3.342v8.736c0,0.528,0.081,1.023,0.244,1.485c0.162,0.461,0.395,0.863,0.696,1.207
		c0.303,0.344,0.67,0.616,1.104,0.816c0.433,0.201,0.916,0.301,1.451,0.301c0.534,0,1.017-0.1,1.446-0.301
		c0.43-0.2,0.796-0.473,1.099-0.816c0.302-0.344,0.534-0.746,0.696-1.207c0.163-0.462,0.244-0.957,0.244-1.485V91.1h2.101v8.736
		c0,0.7-0.119,1.364-0.358,1.991c-0.238,0.627-0.611,1.176-1.117,1.646c-0.506,0.472-1.158,0.844-1.957,1.117
		c-0.799,0.274-1.756,0.411-2.869,0.411c-1,0-1.88-0.137-2.641-0.411c-0.761-0.273-1.398-0.647-1.914-1.121
		c-0.516-0.475-0.906-1.027-1.17-1.657c-0.265-0.63-0.396-1.299-0.396-2.005V91.1z"/>
	<path d="M220.081,104.907c-0.814,0-1.527-0.096-2.139-0.286c-0.611-0.191-1.131-0.455-1.561-0.793
		c-0.43-0.337-0.771-0.738-1.022-1.203c-0.251-0.464-0.425-0.974-0.521-1.527h2.312c0.082,0.337,0.2,0.654,0.353,0.95
		c0.153,0.296,0.348,0.552,0.583,0.769c0.235,0.216,0.516,0.387,0.84,0.511c0.325,0.124,0.7,0.187,1.127,0.187
		c0.286,0,0.568-0.03,0.845-0.091c0.277-0.061,0.525-0.158,0.745-0.292c0.22-0.133,0.396-0.31,0.53-0.529s0.2-0.488,0.2-0.807
		c0-0.407-0.104-0.768-0.311-1.079c-0.207-0.312-0.48-0.597-0.821-0.854c-0.34-0.258-0.729-0.498-1.165-0.722
		c-0.436-0.223-0.88-0.446-1.332-0.673c-0.451-0.226-0.896-0.461-1.331-0.706c-0.437-0.245-0.825-0.521-1.165-0.826
		c-0.341-0.306-0.614-0.649-0.821-1.031s-0.311-0.821-0.311-1.318c0-0.54,0.118-1.042,0.354-1.504
		c0.235-0.461,0.577-0.86,1.026-1.198c0.448-0.337,0.998-0.602,1.646-0.792c0.649-0.191,1.388-0.286,2.216-0.286
		c0.688,0,1.308,0.095,1.862,0.286c0.554,0.19,1.042,0.45,1.465,0.778c0.424,0.328,0.78,0.715,1.07,1.16
		c0.289,0.445,0.511,0.926,0.663,1.441h-2.101c-0.121-0.324-0.261-0.633-0.42-0.926s-0.356-0.551-0.592-0.773
		c-0.236-0.223-0.52-0.399-0.851-0.53c-0.331-0.13-0.729-0.195-1.193-0.195c-0.433,0-0.799,0.057-1.098,0.172
		c-0.3,0.114-0.541,0.259-0.726,0.435c-0.186,0.175-0.317,0.37-0.396,0.587c-0.08,0.217-0.119,0.43-0.119,0.64
		c0,0.362,0.106,0.692,0.319,0.988s0.497,0.569,0.85,0.821c0.354,0.251,0.753,0.493,1.198,0.726
		c0.446,0.232,0.902,0.466,1.371,0.702c0.468,0.235,0.926,0.48,1.375,0.734c0.448,0.255,0.85,0.537,1.203,0.846
		c0.353,0.309,0.636,0.65,0.85,1.026c0.213,0.376,0.319,0.799,0.319,1.27c0,0.554-0.114,1.068-0.344,1.542
		c-0.229,0.475-0.567,0.889-1.017,1.241c-0.449,0.354-1.006,0.631-1.671,0.831S220.947,104.907,220.081,104.907z"/>
	<path d="M238.337,91.1v1.155h-6.818v4.487h5.663v1.165h-5.663v5.395h6.818v1.395h-10.15V91.1H238.337z"/>
	<path d="M257.243,104.907c-0.509,0-1.029-0.101-1.561-0.301c-0.532-0.2-1.062-0.479-1.59-0.835
		c-0.561,0.356-1.18,0.635-1.857,0.835s-1.44,0.301-2.287,0.301c-0.688,0-1.297-0.078-1.828-0.233
		c-0.532-0.156-0.982-0.371-1.352-0.645c-0.369-0.274-0.649-0.599-0.84-0.975c-0.191-0.375-0.287-0.783-0.287-1.222
		c0-0.484,0.099-0.928,0.296-1.332s0.46-0.775,0.788-1.112c0.328-0.338,0.705-0.652,1.132-0.945
		c0.426-0.293,0.869-0.573,1.327-0.841c-0.204-0.509-0.363-1.011-0.478-1.504s-0.172-0.969-0.172-1.428
		c0-0.458,0.096-0.905,0.286-1.341c0.191-0.437,0.462-0.823,0.812-1.16c0.351-0.338,0.773-0.609,1.271-0.816
		c0.496-0.207,1.047-0.311,1.651-0.311c0.414,0,0.829,0.053,1.246,0.157c0.417,0.105,0.791,0.271,1.122,0.497
		c0.331,0.226,0.601,0.517,0.807,0.873c0.207,0.357,0.311,0.787,0.311,1.289c0,0.452-0.108,0.864-0.324,1.237
		c-0.217,0.372-0.502,0.719-0.854,1.04c-0.354,0.322-0.756,0.626-1.208,0.912s-0.914,0.563-1.385,0.831
		c0.273,0.599,0.591,1.188,0.95,1.767s0.749,1.11,1.17,1.594c0.306-0.305,0.593-0.623,0.864-0.954
		c0.271-0.331,0.519-0.662,0.744-0.993s0.43-0.651,0.611-0.96s0.332-0.594,0.453-0.854l1.538,1.021
		c-0.472,0.732-0.941,1.438-1.409,2.115s-0.976,1.297-1.522,1.857c0.344,0.261,0.684,0.465,1.021,0.611
		c0.337,0.146,0.672,0.219,1.003,0.219c0.286,0,0.537-0.044,0.754-0.133c0.217-0.09,0.407-0.214,0.573-0.373
		c0.165-0.159,0.312-0.35,0.439-0.572c0.127-0.224,0.248-0.465,0.362-0.727l1.203,0.535c-0.312,1.012-0.778,1.744-1.398,2.196
		C259.004,104.681,258.21,104.907,257.243,104.907z M250.511,103.302c0.362,0,0.724-0.06,1.084-0.181
		c0.359-0.121,0.718-0.287,1.074-0.497c-0.516-0.478-0.998-1.002-1.447-1.575c-0.448-0.573-0.854-1.168-1.217-1.785
		c-0.439,0.324-0.795,0.663-1.064,1.017c-0.271,0.354-0.406,0.746-0.406,1.179c0,0.242,0.036,0.475,0.109,0.697
		s0.189,0.419,0.349,0.587c0.159,0.169,0.363,0.305,0.611,0.406S250.155,103.302,250.511,103.302z M251.351,94.413
		c0,0.268,0.025,0.55,0.077,0.846c0.051,0.296,0.12,0.606,0.21,0.931c0.292-0.185,0.564-0.375,0.816-0.573
		c0.251-0.197,0.468-0.402,0.649-0.615c0.181-0.214,0.324-0.438,0.43-0.674c0.104-0.235,0.157-0.486,0.157-0.754
		c0-0.471-0.096-0.797-0.286-0.979c-0.191-0.182-0.434-0.272-0.727-0.272c-0.185,0-0.357,0.053-0.52,0.158
		c-0.163,0.104-0.305,0.251-0.426,0.438c-0.12,0.188-0.215,0.409-0.281,0.664S251.351,94.114,251.351,94.413z"/>
	<path d="M271.603,98.223v6.474h-3.332V91.1h3.332v5.958h5.472V91.1h3.304v13.597h-3.304v-6.474H271.603z"/>
	<path d="M290.137,90.804l6.368,13.893h-3.408l-1.7-3.715h-5.28l-1.785,3.715h-2.272l6.636-13.893H290.137z M286.738,99.712h4.096
		l-2.015-4.393L286.738,99.712z"/>
	<path d="M298.186,91.1h5.108c0.879,0,1.648,0.092,2.311,0.276s1.213,0.442,1.652,0.773s0.769,0.723,0.988,1.175
		s0.329,0.945,0.329,1.479c0,0.382-0.075,0.747-0.225,1.094s-0.361,0.665-0.635,0.955c-0.273,0.289-0.602,0.547-0.983,0.773
		c-0.382,0.226-0.806,0.412-1.27,0.559l4.841,6.512h-3.619l-4.573-6.159h-0.593v6.159h-3.332V91.1z M301.518,97.364h0.727
		c0.407,0,0.784-0.058,1.131-0.172c0.347-0.115,0.647-0.278,0.902-0.492c0.255-0.213,0.455-0.474,0.602-0.783
		c0.146-0.309,0.22-0.657,0.22-1.045c0-0.356-0.056-0.685-0.167-0.983c-0.111-0.3-0.266-0.559-0.463-0.778s-0.432-0.39-0.702-0.511
		s-0.568-0.182-0.893-0.182h-1.356V97.364z"/>
	<path d="M311.802,91.1h4.937c1.267,0,2.432,0.147,3.495,0.443c1.062,0.296,1.978,0.729,2.745,1.299
		c0.767,0.57,1.363,1.269,1.79,2.096c0.427,0.828,0.64,1.773,0.64,2.836c0,0.955-0.18,1.854-0.539,2.697
		c-0.36,0.844-0.887,1.577-1.58,2.201c-0.694,0.624-1.546,1.117-2.555,1.48c-1.009,0.362-2.166,0.544-3.471,0.544h-5.462V91.1z
		 M315.134,103.302h1.776c0.655,0,1.273-0.12,1.853-0.362s1.085-0.597,1.519-1.064c0.433-0.468,0.774-1.043,1.026-1.724
		c0.251-0.682,0.377-1.464,0.377-2.349c0-0.765-0.118-1.471-0.354-2.12s-0.564-1.213-0.988-1.69
		c-0.423-0.478-0.928-0.85-1.514-1.117c-0.585-0.267-1.225-0.4-1.919-0.4h-1.776V103.302z"/>
	<path d="M329.209,91.1l3.456,8.784l3.467-8.938l3.494,8.89l3.361-8.736h2.225l-5.347,13.807h-1.509l-2.788-7.104l-2.74,7.104
		h-1.519L325.858,91.1H329.209z"/>
	<path d="M351.907,90.804l6.368,13.893h-3.408l-1.7-3.715h-5.28l-1.785,3.715h-2.272l6.636-13.893H351.907z M348.507,99.712h4.096
		l-2.015-4.393L348.507,99.712z"/>
	<path d="M359.956,91.1h5.108c0.879,0,1.648,0.092,2.311,0.276s1.213,0.442,1.652,0.773s0.769,0.723,0.988,1.175
		s0.329,0.945,0.329,1.479c0,0.382-0.075,0.747-0.225,1.094s-0.361,0.665-0.635,0.955c-0.273,0.289-0.602,0.547-0.983,0.773
		c-0.382,0.226-0.806,0.412-1.27,0.559l4.841,6.512h-3.619l-4.573-6.159h-0.593v6.159h-3.332V91.1z M363.288,97.364h0.727
		c0.407,0,0.784-0.058,1.131-0.172c0.347-0.115,0.647-0.278,0.902-0.492c0.255-0.213,0.455-0.474,0.602-0.783
		c0.146-0.309,0.22-0.657,0.22-1.045c0-0.356-0.056-0.685-0.167-0.983c-0.111-0.3-0.266-0.559-0.463-0.778s-0.432-0.39-0.702-0.511
		s-0.568-0.182-0.893-0.182h-1.356V97.364z"/>
	<path d="M383.722,91.1v1.155h-6.818v4.487h5.663v1.165h-5.663v5.395h6.818v1.395h-10.15V91.1H383.722z"/>
</g>
<g>
	<path d="M133.688,122.426l0.091-0.494c0.19-0.095,0.385-0.178,0.585-0.247c0.199-0.069,0.39-0.112,0.571-0.13l1.561-7.358
		c-0.174-0.035-0.347-0.084-0.521-0.15c-0.173-0.065-0.329-0.141-0.468-0.227l0.104-0.494h2.066c0.329,0,0.648-0.013,0.956-0.039
		s0.651-0.039,1.033-0.039c0.416,0,0.797,0.033,1.144,0.098s0.644,0.165,0.891,0.299c0.247,0.135,0.44,0.312,0.579,0.533
		c0.139,0.221,0.208,0.487,0.208,0.799c0,0.364-0.063,0.689-0.188,0.975c-0.126,0.286-0.299,0.538-0.521,0.754
		c-0.221,0.217-0.483,0.395-0.786,0.533c-0.304,0.139-0.633,0.243-0.988,0.312v0.052c0.234,0.018,0.468,0.061,0.702,0.13
		c0.234,0.07,0.444,0.174,0.631,0.312c0.186,0.139,0.338,0.314,0.455,0.527c0.116,0.212,0.175,0.466,0.175,0.76
		c0,0.468-0.093,0.895-0.279,1.281s-0.462,0.719-0.825,1.001c-0.364,0.282-0.819,0.5-1.365,0.656
		c-0.546,0.156-1.179,0.234-1.898,0.234c-0.182,0-0.379-0.004-0.591-0.013c-0.213-0.009-0.427-0.018-0.644-0.026
		c-0.217-0.008-0.425-0.017-0.624-0.026s-0.369-0.013-0.507-0.013H133.688z M137.751,121.659c0.323,0,0.62-0.056,0.892-0.169
		c0.271-0.113,0.502-0.271,0.694-0.475s0.343-0.442,0.452-0.715c0.109-0.273,0.164-0.57,0.164-0.891
		c0-0.477-0.155-0.793-0.467-0.949c-0.311-0.156-0.746-0.234-1.307-0.234h-0.696l-0.702,3.341c0.113,0.026,0.235,0.048,0.367,0.065
		C137.28,121.65,137.48,121.659,137.751,121.659z M138.085,117.382c0.148,0,0.3-0.007,0.452-0.02
		c0.153-0.013,0.296-0.028,0.427-0.046c0.524-0.199,0.918-0.485,1.181-0.858c0.263-0.373,0.394-0.806,0.394-1.3
		c0-0.338-0.101-0.6-0.303-0.787c-0.202-0.186-0.53-0.279-0.986-0.279c-0.185,0-0.35,0.004-0.494,0.013
		c-0.145,0.009-0.278,0.022-0.4,0.039l-0.689,3.237H138.085z"/>
	<path d="M149.651,121.49v0.453c-0.086,0.071-0.201,0.142-0.344,0.213c-0.144,0.071-0.3,0.133-0.469,0.187
		c-0.169,0.054-0.347,0.098-0.532,0.134c-0.187,0.035-0.371,0.053-0.553,0.053c-0.312,0-0.526-0.063-0.644-0.188
		c-0.117-0.126-0.176-0.258-0.176-0.396c0-0.156,0.018-0.373,0.052-0.65c0.035-0.277,0.104-0.598,0.208-0.962h-0.052
		c-0.112,0.208-0.256,0.442-0.429,0.702c-0.174,0.26-0.377,0.505-0.611,0.734c-0.233,0.23-0.503,0.42-0.806,0.572
		c-0.304,0.151-0.637,0.227-1.001,0.227c-0.355,0-0.644-0.106-0.864-0.318c-0.222-0.212-0.332-0.513-0.332-0.903
		c0-0.19,0.028-0.463,0.085-0.819c0.056-0.355,0.125-0.743,0.208-1.164c0.082-0.42,0.173-0.854,0.272-1.3
		c0.1-0.446,0.188-0.855,0.267-1.229l-0.767-0.169v-0.442c0.14-0.052,0.314-0.104,0.524-0.156c0.21-0.052,0.429-0.099,0.656-0.143
		s0.459-0.08,0.695-0.111c0.236-0.03,0.45-0.05,0.643-0.058l0.289,0.156c-0.139,0.65-0.279,1.268-0.423,1.853
		c-0.143,0.585-0.274,1.203-0.396,1.853c-0.043,0.208-0.089,0.438-0.136,0.689c-0.048,0.251-0.072,0.503-0.072,0.754
		c0,0.156,0.041,0.273,0.122,0.351c0.082,0.078,0.183,0.117,0.303,0.117c0.214,0,0.427-0.084,0.637-0.254
		c0.21-0.169,0.402-0.373,0.578-0.611s0.33-0.483,0.463-0.734s0.229-0.459,0.29-0.624l0.676-3.393h1.755l-1.026,5.577H149.651z"/>
	<path d="M151.107,116.667v-0.442c0.131-0.052,0.304-0.106,0.521-0.163c0.217-0.056,0.446-0.106,0.688-0.149
		c0.243-0.043,0.483-0.08,0.722-0.11s0.449-0.045,0.631-0.045l0.233,0.155l-1.17,5.578h0.91v0.453
		c-0.112,0.08-0.245,0.156-0.396,0.227c-0.151,0.071-0.312,0.134-0.48,0.187s-0.341,0.095-0.514,0.126
		c-0.174,0.031-0.338,0.047-0.494,0.047c-0.329,0-0.557-0.063-0.683-0.188c-0.126-0.126-0.188-0.262-0.188-0.41
		c0-0.173,0.013-0.342,0.039-0.507s0.061-0.347,0.104-0.546l0.884-4.03L151.107,116.667z M152.2,113.742
		c0-0.294,0.1-0.524,0.299-0.689s0.45-0.247,0.754-0.247c0.329,0,0.592,0.083,0.786,0.247c0.195,0.165,0.293,0.395,0.293,0.689
		c0,0.277-0.098,0.499-0.293,0.663c-0.194,0.165-0.457,0.247-0.786,0.247c-0.304,0-0.555-0.082-0.754-0.247
		S152.2,114.019,152.2,113.742z"/>
	<path d="M156.463,113.716l-0.884-0.169v-0.442c0.12-0.052,0.284-0.104,0.491-0.156c0.207-0.052,0.432-0.102,0.673-0.149
		c0.242-0.048,0.489-0.087,0.744-0.117s0.49-0.045,0.705-0.045l0.259,0.143l-1.702,8.71h0.923v0.453
		c-0.087,0.071-0.203,0.142-0.35,0.213s-0.309,0.133-0.485,0.187c-0.177,0.054-0.36,0.098-0.55,0.134
		c-0.189,0.035-0.371,0.053-0.543,0.053c-0.294,0-0.508-0.063-0.641-0.188c-0.134-0.126-0.201-0.262-0.201-0.41
		c0-0.173,0.014-0.342,0.039-0.507c0.026-0.165,0.061-0.347,0.104-0.546L156.463,113.716z"/>
	<path d="M162.962,120.346c-0.13,0.303-0.284,0.589-0.461,0.858c-0.178,0.269-0.373,0.503-0.586,0.702
		c-0.212,0.199-0.443,0.359-0.695,0.481c-0.251,0.121-0.516,0.182-0.793,0.182c-0.441,0-0.804-0.169-1.085-0.507
		c-0.282-0.338-0.423-0.849-0.423-1.534c0-0.616,0.085-1.207,0.254-1.775c0.169-0.567,0.416-1.07,0.74-1.508
		c0.325-0.438,0.724-0.789,1.196-1.053c0.473-0.264,1.012-0.396,1.618-0.396c0.286,0,0.496,0.018,0.631,0.052
		s0.275,0.087,0.423,0.156l0.441-2.288l-0.896-0.169v-0.442c0.13-0.052,0.308-0.104,0.533-0.156c0.225-0.052,0.466-0.1,0.721-0.143
		c0.256-0.043,0.508-0.08,0.755-0.11c0.246-0.03,0.448-0.05,0.604-0.059l0.26,0.143l-1.677,8.71h0.936v0.453
		c-0.087,0.071-0.201,0.142-0.345,0.213c-0.143,0.071-0.299,0.133-0.468,0.187c-0.169,0.054-0.345,0.098-0.526,0.134
		c-0.183,0.035-0.352,0.053-0.507,0.053c-0.304,0-0.521-0.07-0.65-0.208c-0.13-0.139-0.195-0.282-0.195-0.429
		s0.021-0.359,0.065-0.637c0.043-0.277,0.104-0.58,0.182-0.91H162.962z M161.337,121.529c0.182,0,0.362-0.076,0.54-0.228
		c0.177-0.152,0.346-0.34,0.507-0.565c0.16-0.226,0.308-0.468,0.441-0.728c0.135-0.26,0.249-0.499,0.345-0.715l0.468-2.561
		c-0.112-0.069-0.219-0.119-0.318-0.149c-0.1-0.03-0.219-0.045-0.357-0.045c-0.329,0-0.631,0.11-0.903,0.332
		c-0.273,0.221-0.505,0.511-0.695,0.871c-0.191,0.359-0.338,0.771-0.442,1.235c-0.104,0.464-0.156,0.938-0.156,1.423
		C160.765,121.151,160.956,121.529,161.337,121.529z"/>
	<path d="M165.849,124.116c0.183-0.052,0.354-0.13,0.514-0.234s0.304-0.221,0.429-0.351c0.126-0.13,0.229-0.269,0.312-0.416
		c0.082-0.147,0.137-0.291,0.162-0.429c-0.078-0.156-0.195-0.281-0.351-0.377c-0.156-0.095-0.321-0.173-0.494-0.234
		c-0.009-0.182,0.021-0.364,0.091-0.546c0.069-0.182,0.162-0.351,0.279-0.507c0.117-0.156,0.249-0.288,0.396-0.396
		s0.286-0.175,0.416-0.201c0.364,0.017,0.648,0.125,0.852,0.325c0.204,0.2,0.306,0.512,0.306,0.936c0,0.355-0.085,0.7-0.254,1.034
		s-0.383,0.635-0.644,0.903c-0.26,0.269-0.552,0.496-0.877,0.683c-0.325,0.186-0.648,0.314-0.969,0.383L165.849,124.116z"/>
	<path d="M176.417,121.542c0.183,0.052,0.347,0.11,0.494,0.176c0.147,0.065,0.281,0.132,0.403,0.201l-0.091,0.494h-4.004
		l0.091-0.494c0.217-0.104,0.418-0.184,0.604-0.24c0.186-0.056,0.37-0.102,0.552-0.137l1.561-7.358
		c-0.425-0.095-0.754-0.221-0.988-0.377l0.104-0.494h1.378c0.173,0,0.37-0.004,0.591-0.013c0.222-0.009,0.453-0.02,0.696-0.033
		c0.242-0.013,0.489-0.026,0.74-0.039c0.252-0.013,0.49-0.02,0.716-0.02c0.962,0,1.675,0.187,2.138,0.559
		c0.464,0.373,0.696,0.901,0.696,1.586c0,0.321-0.053,0.63-0.156,0.93c-0.104,0.299-0.258,0.576-0.462,0.832
		c-0.203,0.255-0.455,0.481-0.754,0.676c-0.299,0.195-0.647,0.349-1.046,0.461c0.225,0.546,0.504,1.101,0.838,1.664
		c0.334,0.563,0.661,1.109,0.981,1.638l0.546,0.416l-0.091,0.442h-2.066l-0.481-0.429c-0.295-0.477-0.565-1.029-0.812-1.657
		s-0.427-1.246-0.539-1.853h-0.988L176.417,121.542z M178.667,114.054c-0.139,0-0.265,0.009-0.377,0.026s-0.217,0.034-0.312,0.051
		l-0.768,3.602h0.754c0.355,0,0.665-0.066,0.93-0.2s0.483-0.314,0.656-0.542c0.174-0.228,0.304-0.488,0.391-0.781
		c0.086-0.292,0.13-0.603,0.13-0.93c0.009-0.438-0.102-0.753-0.332-0.942C179.509,114.148,179.152,114.054,178.667,114.054z"/>
	<path d="M188.287,120.996c-0.096,0.173-0.234,0.353-0.416,0.54c-0.183,0.187-0.395,0.355-0.637,0.507
		c-0.243,0.152-0.512,0.277-0.807,0.377s-0.603,0.149-0.923,0.149c-0.771,0-1.371-0.21-1.801-0.63
		c-0.429-0.42-0.644-1.016-0.644-1.788c0-0.598,0.096-1.161,0.286-1.69c0.19-0.528,0.457-0.994,0.8-1.397
		c0.342-0.403,0.749-0.721,1.222-0.956c0.473-0.234,0.99-0.351,1.554-0.351c0.521,0,0.949,0.119,1.287,0.357
		s0.507,0.565,0.507,0.981c0,0.589-0.293,1.075-0.881,1.456c-0.587,0.381-1.537,0.62-2.85,0.715
		c-0.026,0.122-0.046,0.245-0.059,0.371c-0.014,0.125-0.02,0.245-0.02,0.357c0,0.494,0.126,0.873,0.378,1.138
		c0.253,0.264,0.574,0.396,0.966,0.396c0.165,0,0.331-0.026,0.496-0.078c0.165-0.052,0.324-0.122,0.477-0.208s0.291-0.18,0.417-0.28
		c0.126-0.099,0.237-0.197,0.333-0.292L188.287,120.996z M186.628,116.498c-0.298,0-0.585,0.161-0.861,0.481
		c-0.275,0.321-0.506,0.863-0.689,1.625c0.648-0.017,1.172-0.16,1.57-0.429c0.399-0.269,0.599-0.62,0.599-1.053
		c0-0.173-0.046-0.32-0.139-0.442C187.016,116.558,186.857,116.498,186.628,116.498z"/>
	<path d="M190.782,124.142c0.147,0.026,0.301,0.076,0.462,0.149c0.16,0.074,0.297,0.149,0.409,0.228v0.494h-2.678l-0.169-0.169
		l1.716-7.995l-0.754-0.182v-0.442c0.139-0.061,0.316-0.119,0.533-0.175c0.216-0.057,0.441-0.106,0.676-0.15
		c0.233-0.043,0.463-0.078,0.688-0.104c0.226-0.026,0.425-0.039,0.599-0.039l0.26,0.156l-0.429,1.794h0.052
		c0.139-0.269,0.297-0.522,0.475-0.76s0.368-0.446,0.571-0.624c0.204-0.178,0.425-0.316,0.663-0.416s0.492-0.149,0.761-0.149
		c0.442,0,0.809,0.173,1.099,0.52c0.29,0.347,0.436,0.832,0.436,1.456c0,0.702-0.1,1.35-0.299,1.944s-0.471,1.105-0.812,1.534
		c-0.343,0.429-0.75,0.763-1.223,1.001c-0.472,0.238-0.981,0.357-1.527,0.357c-0.251,0-0.457-0.019-0.617-0.058
		s-0.327-0.106-0.501-0.202L190.782,124.142z M193.634,116.796c-0.184,0-0.361,0.067-0.532,0.202s-0.331,0.301-0.479,0.5
		c-0.149,0.2-0.285,0.416-0.407,0.65c-0.123,0.234-0.224,0.447-0.303,0.637l-0.571,2.821c0.113,0.078,0.225,0.135,0.334,0.169
		c0.109,0.035,0.269,0.052,0.479,0.052c0.297,0,0.577-0.117,0.84-0.351c0.262-0.234,0.491-0.537,0.688-0.91
		c0.196-0.373,0.35-0.793,0.459-1.261c0.109-0.468,0.164-0.932,0.164-1.391c0-0.364-0.058-0.641-0.171-0.832
		C194.02,116.892,193.853,116.796,193.634,116.796z"/>
	<path d="M201.052,120.346c-0.113,0.277-0.254,0.548-0.423,0.812s-0.362,0.5-0.578,0.708c-0.217,0.208-0.455,0.377-0.715,0.507
		c-0.261,0.13-0.542,0.195-0.846,0.195c-0.45,0-0.811-0.164-1.079-0.494s-0.402-0.819-0.402-1.469c0-0.676,0.093-1.306,0.279-1.892
		c0.187-0.585,0.45-1.096,0.793-1.534c0.342-0.438,0.756-0.78,1.241-1.027c0.485-0.247,1.027-0.371,1.625-0.371
		c0.226,0,0.418,0.026,0.579,0.078c0.16,0.052,0.331,0.117,0.513,0.195c0.226-0.086,0.469-0.151,0.729-0.195
		s0.572-0.065,0.936-0.065l-1.092,5.694h0.91v0.453c-0.087,0.071-0.201,0.142-0.345,0.213c-0.143,0.071-0.299,0.133-0.468,0.187
		c-0.169,0.054-0.343,0.098-0.52,0.134c-0.178,0.035-0.345,0.053-0.501,0.053c-0.304,0-0.52-0.065-0.65-0.195
		c-0.13-0.13-0.194-0.264-0.194-0.403c0-0.156,0.021-0.362,0.064-0.618c0.044-0.255,0.108-0.578,0.195-0.968H201.052z
		 M199.44,121.529c0.165,0,0.336-0.074,0.514-0.221s0.347-0.332,0.507-0.553c0.16-0.221,0.308-0.463,0.442-0.728
		c0.134-0.264,0.249-0.509,0.344-0.734l0.481-2.574c-0.104-0.069-0.201-0.119-0.293-0.149c-0.091-0.03-0.21-0.046-0.357-0.046
		c-0.347,0-0.658,0.115-0.936,0.345s-0.512,0.529-0.702,0.897c-0.19,0.369-0.336,0.782-0.436,1.242s-0.149,0.918-0.149,1.378
		c0,0.398,0.048,0.689,0.143,0.871C199.093,121.438,199.241,121.529,199.44,121.529z"/>
	<path d="M204.913,116.667v-0.442c0.131-0.052,0.304-0.106,0.521-0.163c0.217-0.056,0.446-0.106,0.688-0.149
		c0.243-0.043,0.483-0.08,0.722-0.11s0.449-0.045,0.631-0.045l0.233,0.155l-1.17,5.578h0.91v0.453
		c-0.112,0.08-0.245,0.156-0.396,0.227c-0.151,0.071-0.312,0.134-0.48,0.187s-0.341,0.095-0.514,0.126
		c-0.174,0.031-0.338,0.047-0.494,0.047c-0.329,0-0.557-0.063-0.683-0.188c-0.126-0.126-0.188-0.262-0.188-0.41
		c0-0.173,0.013-0.342,0.039-0.507s0.061-0.347,0.104-0.546l0.884-4.03L204.913,116.667z M206.005,113.742
		c0-0.294,0.1-0.524,0.299-0.689s0.45-0.247,0.754-0.247c0.329,0,0.592,0.083,0.786,0.247c0.195,0.165,0.293,0.395,0.293,0.689
		c0,0.277-0.098,0.499-0.293,0.663c-0.194,0.165-0.457,0.247-0.786,0.247c-0.304,0-0.555-0.082-0.754-0.247
		S206.005,114.019,206.005,113.742z"/>
	<path d="M212.378,117.147c-0.163,0.07-0.346,0.226-0.548,0.468c-0.201,0.243-0.371,0.55-0.509,0.923l-0.832,3.874h-1.846
		l1.157-5.577l-0.741-0.169v-0.442c0.148-0.069,0.321-0.132,0.518-0.188c0.197-0.056,0.407-0.104,0.63-0.143
		c0.224-0.039,0.453-0.069,0.689-0.091s0.464-0.037,0.683-0.045l0.262,0.156l-0.338,1.612h0.053
		c0.257-0.502,0.554-0.923,0.888-1.261c0.335-0.338,0.726-0.507,1.173-0.507c0.12,0,0.24,0.011,0.36,0.032
		c0.12,0.022,0.231,0.063,0.335,0.124c0.017,0.182,0.002,0.379-0.045,0.591c-0.048,0.213-0.11,0.414-0.188,0.604
		c-0.077,0.191-0.167,0.36-0.271,0.507s-0.202,0.247-0.297,0.299L212.378,117.147z"/>
	<path d="M213.832,124.116c0.183-0.052,0.354-0.13,0.514-0.234s0.304-0.221,0.429-0.351c0.126-0.13,0.229-0.269,0.312-0.416
		c0.082-0.147,0.137-0.291,0.162-0.429c-0.078-0.156-0.195-0.281-0.351-0.377c-0.156-0.095-0.321-0.173-0.494-0.234
		c-0.009-0.182,0.021-0.364,0.091-0.546c0.069-0.182,0.162-0.351,0.279-0.507c0.117-0.156,0.249-0.288,0.396-0.396
		s0.286-0.175,0.416-0.201c0.364,0.017,0.648,0.125,0.852,0.325c0.204,0.2,0.306,0.512,0.306,0.936c0,0.355-0.085,0.7-0.254,1.034
		s-0.383,0.635-0.644,0.903c-0.26,0.269-0.552,0.496-0.877,0.683c-0.325,0.186-0.648,0.314-0.969,0.383L213.832,124.116z"/>
	<path d="M228.807,119.683h0.546c0,0.139-0.004,0.306-0.013,0.5s-0.026,0.403-0.052,0.624c-0.026,0.221-0.057,0.44-0.092,0.656
		c-0.034,0.217-0.073,0.412-0.116,0.585c-0.183,0.095-0.384,0.175-0.604,0.24c-0.222,0.065-0.444,0.119-0.67,0.163
		c-0.226,0.043-0.442,0.073-0.65,0.091s-0.39,0.026-0.546,0.026c-0.797,0-1.469-0.108-2.015-0.325
		c-0.546-0.217-0.992-0.499-1.339-0.845c-0.347-0.346-0.596-0.736-0.748-1.17c-0.151-0.433-0.228-0.871-0.228-1.313
		c0-0.858,0.126-1.64,0.377-2.346c0.252-0.707,0.618-1.313,1.099-1.82c0.481-0.507,1.07-0.899,1.769-1.176
		c0.697-0.277,1.488-0.416,2.372-0.416c0.572,0,1.086,0.041,1.541,0.124s0.825,0.193,1.111,0.332
		c-0.026,0.139-0.069,0.316-0.13,0.533c-0.061,0.217-0.13,0.444-0.208,0.683s-0.161,0.473-0.247,0.702
		c-0.087,0.229-0.169,0.422-0.247,0.578h-0.546l-0.299-1.963c-0.078-0.043-0.208-0.078-0.391-0.104
		c-0.182-0.026-0.364-0.039-0.546-0.039c-0.503,0-0.964,0.122-1.385,0.364c-0.42,0.243-0.784,0.585-1.092,1.027
		s-0.546,0.977-0.715,1.605s-0.254,1.328-0.254,2.1c0,0.485,0.069,0.895,0.208,1.229s0.319,0.604,0.54,0.812
		s0.464,0.357,0.728,0.448c0.265,0.091,0.522,0.137,0.773,0.137c0.252,0,0.469-0.024,0.65-0.072
		c0.182-0.047,0.316-0.097,0.403-0.149L228.807,119.683z"/>
	<path d="M234.27,117.147c-0.163,0.07-0.346,0.226-0.548,0.468c-0.201,0.243-0.371,0.55-0.509,0.923l-0.832,3.874h-1.846
		l1.157-5.577l-0.741-0.169v-0.442c0.148-0.069,0.321-0.132,0.518-0.188c0.197-0.056,0.407-0.104,0.63-0.143
		c0.224-0.039,0.453-0.069,0.689-0.091s0.464-0.037,0.683-0.045l0.262,0.156l-0.338,1.612h0.053
		c0.257-0.502,0.554-0.923,0.888-1.261c0.335-0.338,0.726-0.507,1.173-0.507c0.12,0,0.24,0.011,0.36,0.032
		c0.12,0.022,0.231,0.063,0.335,0.124c0.017,0.182,0.002,0.379-0.045,0.591c-0.048,0.213-0.11,0.414-0.188,0.604
		c-0.077,0.191-0.167,0.36-0.271,0.507s-0.202,0.247-0.297,0.299L234.27,117.147z"/>
	<path d="M241.585,120.996c-0.096,0.173-0.234,0.353-0.416,0.54c-0.183,0.187-0.395,0.355-0.637,0.507
		c-0.243,0.152-0.512,0.277-0.807,0.377s-0.603,0.149-0.923,0.149c-0.771,0-1.371-0.21-1.801-0.63
		c-0.429-0.42-0.644-1.016-0.644-1.788c0-0.598,0.096-1.161,0.286-1.69c0.19-0.528,0.457-0.994,0.8-1.397
		c0.342-0.403,0.749-0.721,1.222-0.956c0.473-0.234,0.99-0.351,1.554-0.351c0.521,0,0.949,0.119,1.287,0.357
		s0.507,0.565,0.507,0.981c0,0.589-0.293,1.075-0.881,1.456c-0.587,0.381-1.537,0.62-2.85,0.715
		c-0.026,0.122-0.046,0.245-0.059,0.371c-0.014,0.125-0.02,0.245-0.02,0.357c0,0.494,0.126,0.873,0.378,1.138
		c0.253,0.264,0.574,0.396,0.966,0.396c0.165,0,0.331-0.026,0.496-0.078c0.165-0.052,0.324-0.122,0.477-0.208s0.291-0.18,0.417-0.28
		c0.126-0.099,0.237-0.197,0.333-0.292L241.585,120.996z M239.927,116.498c-0.298,0-0.585,0.161-0.861,0.481
		c-0.275,0.321-0.506,0.863-0.689,1.625c0.648-0.017,1.172-0.16,1.57-0.429c0.399-0.269,0.599-0.62,0.599-1.053
		c0-0.173-0.046-0.32-0.139-0.442C240.315,116.558,240.156,116.498,239.927,116.498z"/>
	<path d="M246.734,120.346c-0.113,0.277-0.254,0.548-0.423,0.812s-0.362,0.5-0.578,0.708c-0.217,0.208-0.455,0.377-0.715,0.507
		c-0.261,0.13-0.542,0.195-0.846,0.195c-0.45,0-0.811-0.164-1.079-0.494s-0.402-0.819-0.402-1.469c0-0.676,0.093-1.306,0.279-1.892
		c0.187-0.585,0.45-1.096,0.793-1.534c0.342-0.438,0.756-0.78,1.241-1.027c0.485-0.247,1.027-0.371,1.625-0.371
		c0.226,0,0.418,0.026,0.579,0.078c0.16,0.052,0.331,0.117,0.513,0.195c0.226-0.086,0.469-0.151,0.729-0.195
		s0.572-0.065,0.936-0.065l-1.092,5.694h0.91v0.453c-0.087,0.071-0.201,0.142-0.345,0.213c-0.143,0.071-0.299,0.133-0.468,0.187
		c-0.169,0.054-0.343,0.098-0.52,0.134c-0.178,0.035-0.345,0.053-0.501,0.053c-0.304,0-0.52-0.065-0.65-0.195
		c-0.13-0.13-0.194-0.264-0.194-0.403c0-0.156,0.021-0.362,0.064-0.618c0.044-0.255,0.108-0.578,0.195-0.968H246.734z
		 M245.122,121.529c0.165,0,0.336-0.074,0.514-0.221s0.347-0.332,0.507-0.553c0.16-0.221,0.308-0.463,0.442-0.728
		c0.134-0.264,0.249-0.509,0.344-0.734l0.481-2.574c-0.104-0.069-0.201-0.119-0.293-0.149c-0.091-0.03-0.21-0.046-0.357-0.046
		c-0.347,0-0.658,0.115-0.936,0.345s-0.512,0.529-0.702,0.897c-0.19,0.369-0.336,0.782-0.436,1.242s-0.149,0.918-0.149,1.378
		c0,0.398,0.048,0.689,0.143,0.871C244.775,121.438,244.922,121.529,245.122,121.529z"/>
	<path d="M250.412,116.237c0.165-0.107,0.347-0.198,0.546-0.274s0.395-0.136,0.585-0.18l0.208-0.988
		c0.06-0.052,0.154-0.102,0.282-0.149c0.128-0.047,0.27-0.091,0.423-0.13c0.154-0.039,0.311-0.076,0.469-0.11
		c0.157-0.035,0.301-0.061,0.429-0.078l0.27,0.156l-0.312,1.43h1.521c0.018,0.107,0.011,0.248-0.02,0.422
		c-0.03,0.175-0.08,0.315-0.149,0.423h-1.521l-0.755,3.349c-0.034,0.164-0.061,0.308-0.077,0.433
		c-0.018,0.125-0.026,0.239-0.026,0.342c0,0.225,0.057,0.388,0.169,0.492s0.265,0.155,0.455,0.155c0.217,0,0.42-0.026,0.611-0.078
		c0.19-0.052,0.372-0.125,0.546-0.221l0.169,0.338c-0.104,0.113-0.241,0.228-0.413,0.345c-0.173,0.117-0.366,0.226-0.581,0.325
		c-0.216,0.1-0.448,0.18-0.697,0.24c-0.25,0.061-0.504,0.091-0.762,0.091c-0.448,0-0.784-0.104-1.008-0.311
		c-0.224-0.207-0.335-0.492-0.335-0.854c0-0.198,0.017-0.41,0.052-0.634c0.034-0.224,0.069-0.414,0.104-0.569l0.755-3.442h-0.937
		V116.237z"/>
	<path d="M260.356,120.996c-0.096,0.173-0.234,0.353-0.416,0.54c-0.183,0.187-0.395,0.355-0.637,0.507
		c-0.243,0.152-0.512,0.277-0.807,0.377s-0.603,0.149-0.923,0.149c-0.771,0-1.371-0.21-1.801-0.63
		c-0.429-0.42-0.644-1.016-0.644-1.788c0-0.598,0.096-1.161,0.286-1.69c0.19-0.528,0.457-0.994,0.8-1.397
		c0.342-0.403,0.749-0.721,1.222-0.956c0.473-0.234,0.99-0.351,1.554-0.351c0.521,0,0.949,0.119,1.287,0.357
		s0.507,0.565,0.507,0.981c0,0.589-0.293,1.075-0.881,1.456c-0.587,0.381-1.537,0.62-2.85,0.715
		c-0.026,0.122-0.046,0.245-0.059,0.371c-0.014,0.125-0.02,0.245-0.02,0.357c0,0.494,0.126,0.873,0.378,1.138
		c0.253,0.264,0.574,0.396,0.966,0.396c0.165,0,0.331-0.026,0.496-0.078c0.165-0.052,0.324-0.122,0.477-0.208s0.291-0.18,0.417-0.28
		c0.126-0.099,0.237-0.197,0.333-0.292L260.356,120.996z M258.698,116.498c-0.298,0-0.585,0.161-0.861,0.481
		c-0.275,0.321-0.506,0.863-0.689,1.625c0.648-0.017,1.172-0.16,1.57-0.429c0.399-0.269,0.599-0.62,0.599-1.053
		c0-0.173-0.046-0.32-0.139-0.442C259.085,116.558,258.926,116.498,258.698,116.498z"/>
	<path d="M269.196,120.346c-0.113,0.277-0.254,0.548-0.423,0.812s-0.362,0.5-0.578,0.708c-0.217,0.208-0.455,0.377-0.715,0.507
		c-0.261,0.13-0.542,0.195-0.846,0.195c-0.45,0-0.811-0.164-1.079-0.494s-0.402-0.819-0.402-1.469c0-0.676,0.093-1.306,0.279-1.892
		c0.187-0.585,0.45-1.096,0.793-1.534c0.342-0.438,0.756-0.78,1.241-1.027c0.485-0.247,1.027-0.371,1.625-0.371
		c0.226,0,0.418,0.026,0.579,0.078c0.16,0.052,0.331,0.117,0.513,0.195c0.226-0.086,0.469-0.151,0.729-0.195
		s0.572-0.065,0.936-0.065l-1.092,5.694h0.91v0.453c-0.087,0.071-0.201,0.142-0.345,0.213c-0.143,0.071-0.299,0.133-0.468,0.187
		c-0.169,0.054-0.343,0.098-0.52,0.134c-0.178,0.035-0.345,0.053-0.501,0.053c-0.304,0-0.52-0.065-0.65-0.195
		c-0.13-0.13-0.194-0.264-0.194-0.403c0-0.156,0.021-0.362,0.064-0.618c0.044-0.255,0.108-0.578,0.195-0.968H269.196z
		 M267.583,121.529c0.165,0,0.336-0.074,0.514-0.221s0.347-0.332,0.507-0.553c0.16-0.221,0.308-0.463,0.442-0.728
		c0.134-0.264,0.249-0.509,0.344-0.734l0.481-2.574c-0.104-0.069-0.201-0.119-0.293-0.149c-0.091-0.03-0.21-0.046-0.357-0.046
		c-0.347,0-0.658,0.115-0.936,0.345s-0.512,0.529-0.702,0.897c-0.19,0.369-0.336,0.782-0.436,1.242s-0.149,0.918-0.149,1.378
		c0,0.398,0.048,0.689,0.143,0.871C267.237,121.438,267.384,121.529,267.583,121.529z"/>
	<path d="M277.254,118.708c0.061-0.269,0.115-0.507,0.163-0.715c0.047-0.208,0.071-0.425,0.071-0.65
		c0-0.147-0.032-0.275-0.097-0.384c-0.064-0.108-0.178-0.163-0.341-0.163c-0.162,0-0.332,0.063-0.508,0.188
		c-0.176,0.126-0.347,0.282-0.514,0.468s-0.321,0.392-0.463,0.618c-0.141,0.225-0.255,0.433-0.34,0.624l-0.78,3.718h-1.794
		l1.118-5.577l-0.768-0.169l0.026-0.442c0.121-0.061,0.277-0.119,0.468-0.175c0.19-0.057,0.398-0.106,0.624-0.15
		c0.226-0.043,0.457-0.078,0.695-0.104c0.238-0.026,0.466-0.039,0.683-0.039l0.26,0.156l-0.402,1.898h0.064
		c0.156-0.286,0.338-0.555,0.546-0.806c0.208-0.251,0.43-0.468,0.663-0.65c0.234-0.182,0.481-0.327,0.741-0.436
		c0.26-0.108,0.524-0.162,0.793-0.162c0.364,0,0.65,0.116,0.858,0.349s0.312,0.543,0.312,0.932c0,0.199-0.021,0.425-0.064,0.68
		c-0.044,0.254-0.096,0.507-0.156,0.757l-0.715,3.016h0.936v0.453c-0.088,0.071-0.204,0.142-0.348,0.213
		c-0.146,0.071-0.303,0.133-0.474,0.187c-0.17,0.054-0.348,0.098-0.531,0.134c-0.185,0.035-0.359,0.053-0.525,0.053
		c-0.298,0-0.515-0.057-0.649-0.169c-0.135-0.113-0.202-0.243-0.202-0.39c0-0.182,0.021-0.377,0.064-0.585s0.087-0.407,0.13-0.598
		L277.254,118.708z"/>
	<path d="M284.535,120.346c-0.13,0.303-0.284,0.589-0.461,0.858c-0.178,0.269-0.373,0.503-0.586,0.702
		c-0.212,0.199-0.443,0.359-0.695,0.481c-0.251,0.121-0.516,0.182-0.793,0.182c-0.441,0-0.804-0.169-1.085-0.507
		c-0.282-0.338-0.423-0.849-0.423-1.534c0-0.616,0.085-1.207,0.254-1.775c0.169-0.567,0.416-1.07,0.74-1.508
		c0.325-0.438,0.724-0.789,1.196-1.053c0.473-0.264,1.012-0.396,1.618-0.396c0.286,0,0.496,0.018,0.631,0.052
		s0.275,0.087,0.423,0.156l0.441-2.288l-0.896-0.169v-0.442c0.13-0.052,0.308-0.104,0.533-0.156c0.225-0.052,0.466-0.1,0.721-0.143
		c0.256-0.043,0.508-0.08,0.755-0.11c0.246-0.03,0.448-0.05,0.604-0.059l0.26,0.143l-1.677,8.71h0.936v0.453
		c-0.087,0.071-0.201,0.142-0.345,0.213c-0.143,0.071-0.299,0.133-0.468,0.187c-0.169,0.054-0.345,0.098-0.526,0.134
		c-0.183,0.035-0.352,0.053-0.507,0.053c-0.304,0-0.521-0.07-0.65-0.208c-0.13-0.139-0.195-0.282-0.195-0.429
		s0.021-0.359,0.065-0.637c0.043-0.277,0.104-0.58,0.182-0.91H284.535z M282.91,121.529c0.182,0,0.362-0.076,0.54-0.228
		c0.177-0.152,0.346-0.34,0.507-0.565c0.16-0.226,0.308-0.468,0.441-0.728c0.135-0.26,0.249-0.499,0.345-0.715l0.468-2.561
		c-0.112-0.069-0.219-0.119-0.318-0.149c-0.1-0.03-0.219-0.045-0.357-0.045c-0.329,0-0.631,0.11-0.903,0.332
		c-0.273,0.221-0.505,0.511-0.695,0.871c-0.191,0.359-0.338,0.771-0.442,1.235c-0.104,0.464-0.156,0.938-0.156,1.423
		C282.337,121.151,282.528,121.529,282.91,121.529z"/>
	<path d="M291.087,122.413l0.091-0.494c0.164-0.086,0.347-0.163,0.546-0.228s0.402-0.115,0.61-0.149l1.561-7.358
		c-0.199-0.043-0.384-0.098-0.553-0.163s-0.314-0.136-0.436-0.214l0.104-0.494h1.508c0.147,0,0.331-0.004,0.553-0.013
		c0.221-0.009,0.45-0.02,0.688-0.033s0.468-0.026,0.689-0.039c0.221-0.013,0.409-0.02,0.565-0.02c0.728,0,1.346,0.078,1.853,0.234
		c0.507,0.156,0.918,0.377,1.234,0.663c0.316,0.286,0.546,0.626,0.689,1.021c0.143,0.395,0.215,0.83,0.215,1.307
		c0,0.494-0.044,0.986-0.131,1.476c-0.086,0.49-0.229,0.96-0.429,1.41c-0.199,0.451-0.455,0.871-0.767,1.261
		c-0.312,0.39-0.695,0.73-1.15,1.021c-0.455,0.291-0.981,0.518-1.58,0.683c-0.598,0.165-1.282,0.247-2.054,0.247
		c-0.113,0-0.267-0.007-0.462-0.02c-0.194-0.013-0.405-0.026-0.63-0.039c-0.226-0.013-0.449-0.026-0.67-0.039
		s-0.414-0.02-0.578-0.02H291.087z M296.716,114.054c-0.156,0-0.304,0.004-0.442,0.013c-0.139,0.009-0.269,0.022-0.39,0.039
		l-1.6,7.527c0.13,0.017,0.277,0.03,0.442,0.039c0.164,0.009,0.294,0.013,0.39,0.013c0.702,0,1.291-0.167,1.769-0.5
		c0.477-0.333,0.862-0.763,1.156-1.287c0.295-0.524,0.505-1.107,0.631-1.749c0.126-0.641,0.188-1.27,0.188-1.885
		c0-0.355-0.034-0.671-0.104-0.949c-0.07-0.277-0.187-0.509-0.352-0.695s-0.386-0.327-0.663-0.422S297.124,114.054,296.716,114.054z
		"/>
	<path d="M306.7,120.996c-0.096,0.173-0.234,0.353-0.416,0.54c-0.183,0.187-0.395,0.355-0.637,0.507
		c-0.243,0.152-0.512,0.277-0.807,0.377s-0.603,0.149-0.923,0.149c-0.771,0-1.371-0.21-1.801-0.63
		c-0.429-0.42-0.644-1.016-0.644-1.788c0-0.598,0.096-1.161,0.286-1.69c0.19-0.528,0.457-0.994,0.8-1.397
		c0.342-0.403,0.749-0.721,1.222-0.956c0.473-0.234,0.99-0.351,1.554-0.351c0.521,0,0.949,0.119,1.287,0.357
		s0.507,0.565,0.507,0.981c0,0.589-0.293,1.075-0.881,1.456c-0.587,0.381-1.537,0.62-2.85,0.715
		c-0.026,0.122-0.046,0.245-0.059,0.371c-0.014,0.125-0.02,0.245-0.02,0.357c0,0.494,0.126,0.873,0.378,1.138
		c0.253,0.264,0.574,0.396,0.966,0.396c0.165,0,0.331-0.026,0.496-0.078c0.165-0.052,0.324-0.122,0.477-0.208s0.291-0.18,0.417-0.28
		c0.126-0.099,0.237-0.197,0.333-0.292L306.7,120.996z M305.042,116.498c-0.298,0-0.585,0.161-0.861,0.481
		c-0.275,0.321-0.506,0.863-0.689,1.625c0.648-0.017,1.172-0.16,1.57-0.429c0.399-0.269,0.599-0.62,0.599-1.053
		c0-0.173-0.046-0.32-0.139-0.442C305.429,116.558,305.27,116.498,305.042,116.498z"/>
	<path d="M312.796,120.996c-0.113,0.182-0.261,0.369-0.442,0.559s-0.393,0.36-0.631,0.507c-0.238,0.147-0.5,0.269-0.786,0.364
		s-0.59,0.143-0.91,0.143c-0.685,0-1.229-0.203-1.632-0.611c-0.402-0.407-0.604-0.975-0.604-1.703c0-0.606,0.094-1.183,0.28-1.729
		c0.186-0.546,0.448-1.024,0.786-1.437c0.338-0.411,0.747-0.736,1.229-0.975s1.016-0.357,1.605-0.357c0.39,0,0.73,0.041,1.021,0.123
		c0.29,0.083,0.483,0.18,0.578,0.292c0.009,0.096-0.006,0.215-0.046,0.358c-0.039,0.143-0.098,0.286-0.177,0.429
		c-0.078,0.143-0.172,0.277-0.281,0.403c-0.109,0.125-0.221,0.214-0.334,0.266l-0.798-1.131c-0.236,0-0.475,0.08-0.714,0.241
		c-0.24,0.16-0.456,0.39-0.648,0.689c-0.192,0.299-0.349,0.659-0.472,1.079c-0.122,0.421-0.183,0.895-0.183,1.424
		s0.108,0.917,0.327,1.164s0.512,0.37,0.879,0.37c0.175,0,0.343-0.028,0.504-0.084c0.162-0.056,0.312-0.124,0.452-0.201
		c0.14-0.078,0.269-0.163,0.387-0.253c0.118-0.091,0.221-0.176,0.309-0.254L312.796,120.996z"/>
	<path d="M313.785,119.917c0-0.468,0.078-0.947,0.234-1.437c0.155-0.489,0.394-0.936,0.715-1.339
		c0.32-0.403,0.726-0.734,1.215-0.995c0.49-0.26,1.064-0.39,1.723-0.39c0.78,0,1.392,0.212,1.833,0.637
		c0.442,0.425,0.663,1.058,0.663,1.898c0,0.572-0.087,1.116-0.26,1.632c-0.174,0.516-0.425,0.971-0.754,1.365
		c-0.329,0.395-0.73,0.707-1.202,0.936c-0.473,0.229-1.013,0.344-1.619,0.344c-0.364,0-0.702-0.054-1.014-0.162
		c-0.312-0.108-0.583-0.273-0.812-0.494s-0.407-0.496-0.533-0.826C313.847,120.757,313.785,120.367,313.785,119.917z
		 M317.451,116.498c-0.347,0-0.635,0.13-0.864,0.39c-0.229,0.26-0.416,0.587-0.56,0.981c-0.143,0.395-0.244,0.821-0.305,1.28
		c-0.062,0.459-0.092,0.884-0.092,1.274c0,0.442,0.085,0.786,0.254,1.033s0.4,0.371,0.695,0.371c0.251,0,0.483-0.106,0.695-0.318
		c0.213-0.212,0.396-0.499,0.553-0.858c0.156-0.359,0.277-0.771,0.364-1.235c0.086-0.463,0.13-0.947,0.13-1.449
		c0-0.477-0.076-0.841-0.228-1.092C317.943,116.624,317.728,116.498,317.451,116.498z"/>
	<path d="M324.825,117.147c-0.163,0.07-0.346,0.226-0.548,0.468c-0.201,0.243-0.371,0.55-0.509,0.923l-0.832,3.874h-1.846
		l1.157-5.577l-0.741-0.169v-0.442c0.148-0.069,0.321-0.132,0.518-0.188c0.197-0.056,0.407-0.104,0.63-0.143
		c0.224-0.039,0.453-0.069,0.689-0.091s0.464-0.037,0.683-0.045l0.262,0.156l-0.338,1.612h0.053
		c0.257-0.502,0.554-0.923,0.888-1.261c0.335-0.338,0.726-0.507,1.173-0.507c0.12,0,0.24,0.011,0.36,0.032
		c0.12,0.022,0.231,0.063,0.335,0.124c0.017,0.182,0.002,0.379-0.045,0.591c-0.048,0.213-0.11,0.414-0.188,0.604
		c-0.077,0.191-0.167,0.36-0.271,0.507s-0.202,0.247-0.297,0.299L324.825,117.147z"/>
	<path d="M330.97,120.346c-0.113,0.277-0.254,0.548-0.423,0.812s-0.362,0.5-0.578,0.708c-0.217,0.208-0.455,0.377-0.715,0.507
		c-0.261,0.13-0.542,0.195-0.846,0.195c-0.45,0-0.811-0.164-1.079-0.494s-0.402-0.819-0.402-1.469c0-0.676,0.093-1.306,0.279-1.892
		c0.187-0.585,0.45-1.096,0.793-1.534c0.342-0.438,0.756-0.78,1.241-1.027c0.485-0.247,1.027-0.371,1.625-0.371
		c0.226,0,0.418,0.026,0.579,0.078c0.16,0.052,0.331,0.117,0.513,0.195c0.226-0.086,0.469-0.151,0.729-0.195
		s0.572-0.065,0.936-0.065l-1.092,5.694h0.91v0.453c-0.087,0.071-0.201,0.142-0.345,0.213c-0.143,0.071-0.299,0.133-0.468,0.187
		c-0.169,0.054-0.343,0.098-0.52,0.134c-0.178,0.035-0.345,0.053-0.501,0.053c-0.304,0-0.52-0.065-0.65-0.195
		c-0.13-0.13-0.194-0.264-0.194-0.403c0-0.156,0.021-0.362,0.064-0.618c0.044-0.255,0.108-0.578,0.195-0.968H330.97z
		 M329.358,121.529c0.165,0,0.336-0.074,0.514-0.221s0.347-0.332,0.507-0.553c0.16-0.221,0.308-0.463,0.442-0.728
		c0.134-0.264,0.249-0.509,0.344-0.734l0.481-2.574c-0.104-0.069-0.201-0.119-0.293-0.149c-0.091-0.03-0.21-0.046-0.357-0.046
		c-0.347,0-0.658,0.115-0.936,0.345s-0.512,0.529-0.702,0.897c-0.19,0.369-0.336,0.782-0.436,1.242s-0.149,0.918-0.149,1.378
		c0,0.398,0.048,0.689,0.143,0.871C329.011,121.438,329.159,121.529,329.358,121.529z"/>
	<path d="M334.649,116.237c0.165-0.107,0.347-0.198,0.546-0.274s0.395-0.136,0.585-0.18l0.208-0.988
		c0.06-0.052,0.154-0.102,0.282-0.149c0.128-0.047,0.27-0.091,0.423-0.13c0.154-0.039,0.311-0.076,0.469-0.11
		c0.157-0.035,0.301-0.061,0.429-0.078l0.27,0.156l-0.312,1.43h1.521c0.018,0.107,0.011,0.248-0.02,0.422
		c-0.03,0.175-0.08,0.315-0.149,0.423h-1.521l-0.755,3.349c-0.034,0.164-0.061,0.308-0.077,0.433
		c-0.018,0.125-0.026,0.239-0.026,0.342c0,0.225,0.057,0.388,0.169,0.492s0.265,0.155,0.455,0.155c0.217,0,0.42-0.026,0.611-0.078
		c0.19-0.052,0.372-0.125,0.546-0.221l0.169,0.338c-0.104,0.113-0.241,0.228-0.413,0.345c-0.173,0.117-0.366,0.226-0.581,0.325
		c-0.216,0.1-0.448,0.18-0.697,0.24c-0.25,0.061-0.504,0.091-0.762,0.091c-0.448,0-0.784-0.104-1.008-0.311
		c-0.224-0.207-0.335-0.492-0.335-0.854c0-0.198,0.017-0.41,0.052-0.634c0.034-0.224,0.069-0.414,0.104-0.569l0.755-3.442h-0.937
		V116.237z"/>
	<path d="M344.593,120.996c-0.096,0.173-0.234,0.353-0.416,0.54c-0.183,0.187-0.395,0.355-0.637,0.507
		c-0.243,0.152-0.512,0.277-0.807,0.377s-0.603,0.149-0.923,0.149c-0.771,0-1.371-0.21-1.801-0.63
		c-0.429-0.42-0.644-1.016-0.644-1.788c0-0.598,0.096-1.161,0.286-1.69c0.19-0.528,0.457-0.994,0.8-1.397
		c0.342-0.403,0.749-0.721,1.222-0.956c0.473-0.234,0.99-0.351,1.554-0.351c0.521,0,0.949,0.119,1.287,0.357
		s0.507,0.565,0.507,0.981c0,0.589-0.293,1.075-0.881,1.456c-0.587,0.381-1.537,0.62-2.85,0.715
		c-0.026,0.122-0.046,0.245-0.059,0.371c-0.014,0.125-0.02,0.245-0.02,0.357c0,0.494,0.126,0.873,0.378,1.138
		c0.253,0.264,0.574,0.396,0.966,0.396c0.165,0,0.331-0.026,0.496-0.078c0.165-0.052,0.324-0.122,0.477-0.208s0.291-0.18,0.417-0.28
		c0.126-0.099,0.237-0.197,0.333-0.292L344.593,120.996z M342.935,116.498c-0.298,0-0.585,0.161-0.861,0.481
		c-0.275,0.321-0.506,0.863-0.689,1.625c0.648-0.017,1.172-0.16,1.57-0.429c0.399-0.269,0.599-0.62,0.599-1.053
		c0-0.173-0.046-0.32-0.139-0.442C343.323,116.558,343.164,116.498,342.935,116.498z"/>
	<path d="M346.27,121.49c0-0.312,0.1-0.563,0.3-0.754c0.199-0.191,0.463-0.286,0.793-0.286c0.329,0,0.598,0.095,0.806,0.286
		c0.208,0.19,0.312,0.442,0.312,0.754s-0.104,0.561-0.312,0.748c-0.208,0.186-0.477,0.279-0.806,0.279
		c-0.33,0-0.594-0.093-0.793-0.279C346.37,122.051,346.27,121.802,346.27,121.49z M347.388,119.579l-0.155-2.522l0.701-3.614
		c0.095-0.043,0.233-0.078,0.417-0.104c0.184-0.026,0.374-0.039,0.571-0.039c0.196,0,0.38,0.013,0.552,0.039
		c0.171,0.026,0.299,0.061,0.385,0.104l-0.78,3.614l-1.145,2.522H347.388z"/>
</g>
</svg>
